<mxfile host="app.diagrams.net" modified="2021-04-11T18:34:08.192Z" agent="5.0 (Windows)" etag="uDO7QhzEGEfnvwYMihtn" version="14.5.10" type="github">
  <diagram id="_TyV_5MtCpTuTZW6pL2b" name="Page-1">
    <mxGraphModel dx="1422" dy="801" grid="1" gridSize="10" guides="1" tooltips="1" connect="1" arrows="1" fold="1" page="1" pageScale="1" pageWidth="827" pageHeight="1169" math="0" shadow="0">
      <root>
        <mxCell id="0" />
        <mxCell id="1" parent="0" />
        <mxCell id="5V8zpgAyy2Uyl_QEi7uC-1" value="0" style="ellipse;whiteSpace=wrap;html=1;" vertex="1" parent="1">
          <mxGeometry x="376" y="80" width="76" height="40" as="geometry" />
        </mxCell>
        <mxCell id="5V8zpgAyy2Uyl_QEi7uC-3" value="01" style="ellipse;whiteSpace=wrap;html=1;" vertex="1" parent="1">
          <mxGeometry x="260" y="160" width="76" height="40" as="geometry" />
        </mxCell>
        <mxCell id="5V8zpgAyy2Uyl_QEi7uC-5" value="02" style="ellipse;whiteSpace=wrap;html=1;" vertex="1" parent="1">
          <mxGeometry x="376" y="160" width="76" height="40" as="geometry" />
        </mxCell>
        <mxCell id="5V8zpgAyy2Uyl_QEi7uC-7" value="03" style="ellipse;whiteSpace=wrap;html=1;" vertex="1" parent="1">
          <mxGeometry x="490" y="160" width="76" height="40" as="geometry" />
        </mxCell>
        <mxCell id="5V8zpgAyy2Uyl_QEi7uC-8" value="" style="endArrow=classic;html=1;exitX=0;exitY=0.5;exitDx=0;exitDy=0;entryX=0.5;entryY=0;entryDx=0;entryDy=0;" edge="1" parent="1" source="5V8zpgAyy2Uyl_QEi7uC-1" target="5V8zpgAyy2Uyl_QEi7uC-3">
          <mxGeometry width="50" height="50" relative="1" as="geometry">
            <mxPoint x="390" y="400" as="sourcePoint" />
            <mxPoint x="440" y="350" as="targetPoint" />
          </mxGeometry>
        </mxCell>
        <mxCell id="5V8zpgAyy2Uyl_QEi7uC-9" value="" style="endArrow=classic;html=1;exitX=0.5;exitY=1;exitDx=0;exitDy=0;entryX=0.5;entryY=0;entryDx=0;entryDy=0;" edge="1" parent="1" source="5V8zpgAyy2Uyl_QEi7uC-1" target="5V8zpgAyy2Uyl_QEi7uC-5">
          <mxGeometry width="50" height="50" relative="1" as="geometry">
            <mxPoint x="390" y="400" as="sourcePoint" />
            <mxPoint x="440" y="350" as="targetPoint" />
          </mxGeometry>
        </mxCell>
        <mxCell id="5V8zpgAyy2Uyl_QEi7uC-10" value="" style="endArrow=classic;html=1;exitX=1;exitY=0.5;exitDx=0;exitDy=0;entryX=0.5;entryY=0;entryDx=0;entryDy=0;" edge="1" parent="1" source="5V8zpgAyy2Uyl_QEi7uC-1" target="5V8zpgAyy2Uyl_QEi7uC-7">
          <mxGeometry width="50" height="50" relative="1" as="geometry">
            <mxPoint x="390" y="400" as="sourcePoint" />
            <mxPoint x="440" y="350" as="targetPoint" />
          </mxGeometry>
        </mxCell>
        <mxCell id="5V8zpgAyy2Uyl_QEi7uC-33" style="edgeStyle=orthogonalEdgeStyle;rounded=0;orthogonalLoop=1;jettySize=auto;html=1;exitX=0.5;exitY=1;exitDx=0;exitDy=0;entryX=0.5;entryY=0;entryDx=0;entryDy=0;" edge="1" parent="1" source="5V8zpgAyy2Uyl_QEi7uC-11" target="5V8zpgAyy2Uyl_QEi7uC-25">
          <mxGeometry relative="1" as="geometry" />
        </mxCell>
        <mxCell id="5V8zpgAyy2Uyl_QEi7uC-11" value="012" style="ellipse;whiteSpace=wrap;html=1;" vertex="1" parent="1">
          <mxGeometry x="130" y="240" width="76" height="40" as="geometry" />
        </mxCell>
        <mxCell id="5V8zpgAyy2Uyl_QEi7uC-34" style="edgeStyle=orthogonalEdgeStyle;rounded=0;orthogonalLoop=1;jettySize=auto;html=1;exitX=0.5;exitY=1;exitDx=0;exitDy=0;entryX=0.5;entryY=0;entryDx=0;entryDy=0;" edge="1" parent="1" source="5V8zpgAyy2Uyl_QEi7uC-12" target="5V8zpgAyy2Uyl_QEi7uC-26">
          <mxGeometry relative="1" as="geometry" />
        </mxCell>
        <mxCell id="5V8zpgAyy2Uyl_QEi7uC-12" value="&lt;div&gt;013&lt;/div&gt;" style="ellipse;whiteSpace=wrap;html=1;" vertex="1" parent="1">
          <mxGeometry x="230" y="240" width="76" height="40" as="geometry" />
        </mxCell>
        <mxCell id="5V8zpgAyy2Uyl_QEi7uC-13" value="" style="endArrow=classic;html=1;exitX=0.5;exitY=1;exitDx=0;exitDy=0;entryX=0.5;entryY=0;entryDx=0;entryDy=0;" edge="1" parent="1" source="5V8zpgAyy2Uyl_QEi7uC-3" target="5V8zpgAyy2Uyl_QEi7uC-12">
          <mxGeometry width="50" height="50" relative="1" as="geometry">
            <mxPoint x="390" y="400" as="sourcePoint" />
            <mxPoint x="440" y="350" as="targetPoint" />
          </mxGeometry>
        </mxCell>
        <mxCell id="5V8zpgAyy2Uyl_QEi7uC-14" value="" style="endArrow=classic;html=1;exitX=0;exitY=0.5;exitDx=0;exitDy=0;entryX=0.5;entryY=0;entryDx=0;entryDy=0;" edge="1" parent="1" source="5V8zpgAyy2Uyl_QEi7uC-3" target="5V8zpgAyy2Uyl_QEi7uC-11">
          <mxGeometry width="50" height="50" relative="1" as="geometry">
            <mxPoint x="390" y="400" as="sourcePoint" />
            <mxPoint x="440" y="350" as="targetPoint" />
          </mxGeometry>
        </mxCell>
        <mxCell id="5V8zpgAyy2Uyl_QEi7uC-35" style="edgeStyle=orthogonalEdgeStyle;rounded=0;orthogonalLoop=1;jettySize=auto;html=1;exitX=0.5;exitY=1;exitDx=0;exitDy=0;entryX=0.5;entryY=0;entryDx=0;entryDy=0;" edge="1" parent="1" source="5V8zpgAyy2Uyl_QEi7uC-15" target="5V8zpgAyy2Uyl_QEi7uC-28">
          <mxGeometry relative="1" as="geometry" />
        </mxCell>
        <mxCell id="5V8zpgAyy2Uyl_QEi7uC-15" value="&lt;div&gt;021&lt;/div&gt;" style="ellipse;whiteSpace=wrap;html=1;" vertex="1" parent="1">
          <mxGeometry x="330" y="240" width="76" height="40" as="geometry" />
        </mxCell>
        <mxCell id="5V8zpgAyy2Uyl_QEi7uC-36" style="edgeStyle=orthogonalEdgeStyle;rounded=0;orthogonalLoop=1;jettySize=auto;html=1;exitX=0.5;exitY=1;exitDx=0;exitDy=0;entryX=0.5;entryY=0;entryDx=0;entryDy=0;" edge="1" parent="1" source="5V8zpgAyy2Uyl_QEi7uC-16" target="5V8zpgAyy2Uyl_QEi7uC-29">
          <mxGeometry relative="1" as="geometry" />
        </mxCell>
        <mxCell id="5V8zpgAyy2Uyl_QEi7uC-16" value="023" style="ellipse;whiteSpace=wrap;html=1;" vertex="1" parent="1">
          <mxGeometry x="430" y="240" width="76" height="40" as="geometry" />
        </mxCell>
        <mxCell id="5V8zpgAyy2Uyl_QEi7uC-17" value="" style="endArrow=classic;html=1;exitX=0;exitY=1;exitDx=0;exitDy=0;entryX=0.5;entryY=0;entryDx=0;entryDy=0;" edge="1" parent="1" source="5V8zpgAyy2Uyl_QEi7uC-5" target="5V8zpgAyy2Uyl_QEi7uC-15">
          <mxGeometry width="50" height="50" relative="1" as="geometry">
            <mxPoint x="390" y="400" as="sourcePoint" />
            <mxPoint x="440" y="350" as="targetPoint" />
          </mxGeometry>
        </mxCell>
        <mxCell id="5V8zpgAyy2Uyl_QEi7uC-18" value="" style="endArrow=classic;html=1;exitX=1;exitY=1;exitDx=0;exitDy=0;entryX=0.5;entryY=0;entryDx=0;entryDy=0;" edge="1" parent="1" source="5V8zpgAyy2Uyl_QEi7uC-5" target="5V8zpgAyy2Uyl_QEi7uC-16">
          <mxGeometry width="50" height="50" relative="1" as="geometry">
            <mxPoint x="390" y="400" as="sourcePoint" />
            <mxPoint x="440" y="350" as="targetPoint" />
          </mxGeometry>
        </mxCell>
        <mxCell id="5V8zpgAyy2Uyl_QEi7uC-37" style="edgeStyle=orthogonalEdgeStyle;rounded=0;orthogonalLoop=1;jettySize=auto;html=1;exitX=0.5;exitY=1;exitDx=0;exitDy=0;entryX=0.5;entryY=0;entryDx=0;entryDy=0;" edge="1" parent="1" source="5V8zpgAyy2Uyl_QEi7uC-19" target="5V8zpgAyy2Uyl_QEi7uC-31">
          <mxGeometry relative="1" as="geometry" />
        </mxCell>
        <mxCell id="5V8zpgAyy2Uyl_QEi7uC-19" value="031" style="ellipse;whiteSpace=wrap;html=1;" vertex="1" parent="1">
          <mxGeometry x="520" y="240" width="76" height="40" as="geometry" />
        </mxCell>
        <mxCell id="5V8zpgAyy2Uyl_QEi7uC-38" style="edgeStyle=orthogonalEdgeStyle;rounded=0;orthogonalLoop=1;jettySize=auto;html=1;exitX=0.5;exitY=1;exitDx=0;exitDy=0;entryX=0.5;entryY=0;entryDx=0;entryDy=0;" edge="1" parent="1" source="5V8zpgAyy2Uyl_QEi7uC-21" target="5V8zpgAyy2Uyl_QEi7uC-32">
          <mxGeometry relative="1" as="geometry" />
        </mxCell>
        <mxCell id="5V8zpgAyy2Uyl_QEi7uC-21" value="032" style="ellipse;whiteSpace=wrap;html=1;" vertex="1" parent="1">
          <mxGeometry x="620" y="240" width="76" height="40" as="geometry" />
        </mxCell>
        <mxCell id="5V8zpgAyy2Uyl_QEi7uC-23" value="" style="endArrow=classic;html=1;exitX=0.5;exitY=1;exitDx=0;exitDy=0;entryX=0.5;entryY=0;entryDx=0;entryDy=0;" edge="1" parent="1" source="5V8zpgAyy2Uyl_QEi7uC-7" target="5V8zpgAyy2Uyl_QEi7uC-19">
          <mxGeometry width="50" height="50" relative="1" as="geometry">
            <mxPoint x="390" y="400" as="sourcePoint" />
            <mxPoint x="440" y="350" as="targetPoint" />
          </mxGeometry>
        </mxCell>
        <mxCell id="5V8zpgAyy2Uyl_QEi7uC-24" value="" style="endArrow=classic;html=1;exitX=0.961;exitY=0.775;exitDx=0;exitDy=0;exitPerimeter=0;entryX=0.5;entryY=0;entryDx=0;entryDy=0;" edge="1" parent="1" source="5V8zpgAyy2Uyl_QEi7uC-7" target="5V8zpgAyy2Uyl_QEi7uC-21">
          <mxGeometry width="50" height="50" relative="1" as="geometry">
            <mxPoint x="390" y="400" as="sourcePoint" />
            <mxPoint x="440" y="350" as="targetPoint" />
          </mxGeometry>
        </mxCell>
        <mxCell id="5V8zpgAyy2Uyl_QEi7uC-25" value="&lt;div&gt;0123&lt;/div&gt;" style="ellipse;whiteSpace=wrap;html=1;" vertex="1" parent="1">
          <mxGeometry x="130" y="300" width="76" height="40" as="geometry" />
        </mxCell>
        <mxCell id="5V8zpgAyy2Uyl_QEi7uC-26" value="&lt;div&gt;0132&lt;/div&gt;" style="ellipse;whiteSpace=wrap;html=1;" vertex="1" parent="1">
          <mxGeometry x="230" y="300" width="76" height="40" as="geometry" />
        </mxCell>
        <mxCell id="5V8zpgAyy2Uyl_QEi7uC-28" value="&lt;div&gt;0213&lt;/div&gt;" style="ellipse;whiteSpace=wrap;html=1;" vertex="1" parent="1">
          <mxGeometry x="330" y="300" width="76" height="40" as="geometry" />
        </mxCell>
        <mxCell id="5V8zpgAyy2Uyl_QEi7uC-29" value="0231" style="ellipse;whiteSpace=wrap;html=1;" vertex="1" parent="1">
          <mxGeometry x="430" y="300" width="76" height="40" as="geometry" />
        </mxCell>
        <mxCell id="5V8zpgAyy2Uyl_QEi7uC-31" value="0312" style="ellipse;whiteSpace=wrap;html=1;" vertex="1" parent="1">
          <mxGeometry x="520" y="300" width="76" height="40" as="geometry" />
        </mxCell>
        <mxCell id="5V8zpgAyy2Uyl_QEi7uC-32" value="0321" style="ellipse;whiteSpace=wrap;html=1;" vertex="1" parent="1">
          <mxGeometry x="620" y="300" width="76" height="40" as="geometry" />
        </mxCell>
      </root>
    </mxGraphModel>
  </diagram>
</mxfile>
